<?xml version="1.0" standalone="no"?>
<!DOCTYPE svg PUBLIC "-//W3C//DTD SVG 20010904//EN"
 "http://www.w3.org/TR/2001/REC-SVG-20010904/DTD/svg10.dtd">
<svg version="1.0" xmlns="http://www.w3.org/2000/svg"
 width="1536.000000pt" height="1536.000000pt" viewBox="0 0 1536.000000 1536.000000"
 preserveAspectRatio="xMidYMid meet">

<g transform="translate(0.000000,1536.000000) scale(0.100000,-0.100000)"
fill="#000000" stroke="none">
<path d="M0 7680 l0 -7680 7680 0 7680 0 0 7680 0 7680 -7680 0 -7680 0 0
-7680z m7446 3780 c40 -80 102 -208 138 -285 35 -77 85 -185 111 -240 26 -55
71 -151 100 -215 29 -63 82 -176 118 -251 36 -75 88 -186 115 -245 28 -60 69
-149 92 -199 76 -162 111 -238 172 -370 33 -71 80 -172 104 -222 24 -51 44
-95 44 -97 0 -2 18 -42 39 -89 l39 -85 54 27 c106 52 226 102 518 216 444 173
689 280 855 375 22 13 59 34 83 47 111 60 273 185 406 313 100 96 220 245 213
263 -2 7 -56 23 -118 36 -63 13 -136 29 -164 37 -27 7 -63 14 -79 16 -31 3
-50 28 -22 28 9 0 67 25 129 56 262 132 592 340 893 566 98 73 120 82 111 46
-3 -13 -9 -48 -12 -78 -8 -68 -41 -313 -61 -441 -27 -182 -164 -1162 -182
-1309 -7 -50 -10 -60 -9 -30 0 57 -54 163 -274 534 l-23 39 -39 -44 c-95 -105
-259 -268 -347 -344 -122 -105 -223 -175 -385 -266 -197 -110 -321 -165 -800
-356 -563 -224 -693 -287 -840 -406 -270 -219 -448 -495 -715 -1112 -26 -60
-67 -150 -90 -200 -23 -49 -108 -243 -190 -430 -82 -187 -165 -376 -185 -420
-21 -44 -45 -100 -55 -125 -10 -25 -41 -93 -69 -152 -28 -59 -51 -110 -51
-112 0 -2 -45 -100 -101 -217 -56 -118 -114 -242 -130 -277 -100 -216 -319
-644 -378 -737 -187 -298 -396 -518 -646 -681 -95 -61 -303 -163 -395 -193
-322 -103 -539 -120 -1475 -117 l-530 1 0 24 c0 20 15 33 80 72 126 74 289
237 356 355 63 111 89 161 152 289 38 77 97 203 132 280 34 77 84 184 109 238
25 55 46 100 46 102 0 1 22 49 49 106 63 134 302 649 331 714 12 28 49 105 81
173 33 68 59 125 59 127 0 2 27 60 60 130 33 70 60 128 60 130 0 1 50 108 111
236 61 129 162 345 225 481 62 135 137 295 165 355 28 59 62 131 74 158 12 28
46 100 75 160 29 61 81 171 115 245 35 74 112 241 172 370 309 660 400 854
445 950 66 138 245 522 320 685 63 140 70 153 178 380 40 83 91 193 115 245
24 52 82 175 129 274 48 98 99 208 116 245 16 36 54 117 84 179 31 62 56 114
56 116 0 2 7 20 15 40 11 25 21 36 32 34 9 -2 46 -64 89 -148z m3864 -275 c-7
-8 -16 -15 -21 -15 -5 0 -6 7 -3 15 4 8 13 15 21 15 13 0 13 -3 3 -15z m-60
-40 c0 -2 -10 -9 -22 -15 -22 -11 -22 -10 -4 4 21 17 26 19 26 11z m-70 -55
c-29 -23 -40 -25 -40 -8 0 6 3 8 6 5 4 -3 16 0 28 8 30 22 35 18 6 -5z m-51
-33 c-21 -16 -107 -75 -116 -81 -7 -4 -13 -3 -13 3 0 5 8 12 19 16 10 3 30 17
45 30 30 28 59 45 65 39 2 -2 2 -5 0 -7z m278 -39 c-3 -8 -6 -5 -6 6 -1 11 2
17 5 13 3 -3 4 -12 1 -19z m-10 -60 c-3 -8 -6 -5 -6 6 -1 11 2 17 5 13 3 -3 4
-12 1 -19z m-414 -3 c-3 -9 -8 -14 -10 -11 -3 3 -2 9 2 15 9 16 15 13 8 -4z
m414 -62 c-3 -10 -5 -2 -5 17 0 19 2 27 5 18 2 -10 2 -26 0 -35z m-467 29 c0
-10 -60 -36 -67 -28 -4 3 1 6 10 6 10 0 17 4 17 9 0 5 8 12 18 14 9 3 18 5 20
6 1 0 2 -2 2 -7z m-100 -61 c0 -5 -41 -33 -91 -63 -50 -29 -109 -64 -133 -78
-23 -14 -52 -31 -64 -38 -12 -7 -22 -10 -22 -8 0 8 117 86 128 86 6 0 13 7 16
16 3 8 10 12 16 9 5 -3 21 5 34 18 14 14 28 22 31 18 4 -3 13 3 21 13 8 11 14
16 14 12 0 -4 10 0 22 8 26 19 28 19 28 7z m557 -13 c-3 -8 -6 -5 -6 6 -1 11
2 17 5 13 3 -3 4 -12 1 -19z m-897 -186 c0 -4 -22 -20 -50 -35 -63 -34 -65
-26 -3 13 52 33 53 34 53 22z m-122 -66 c-7 -8 -15 -12 -17 -11 -5 6 10 25 20
25 5 0 4 -6 -3 -14z m-86 -28 c-7 -7 -12 -8 -12 -2 0 14 12 26 19 19 2 -3 -1
-11 -7 -17z m45 5 c-9 -9 -20 -13 -24 -9 -4 4 -1 11 7 16 25 16 35 11 17 -7z
m-2377 -93 c0 -5 -2 -10 -4 -10 -3 0 -8 5 -11 10 -3 6 -1 10 4 10 6 0 11 -4
11 -10z m23 -51 c7 -25 3 -24 -17 6 -13 19 -13 23 -2 19 8 -3 16 -14 19 -25z
m2317 -39 c0 -5 -2 -10 -4 -10 -3 0 -8 5 -11 10 -3 6 -1 10 4 10 6 0 11 -4 11
-10z m-2269 -74 c5 -6 9 -17 9 -25 0 -9 -7 -3 -15 13 -8 15 -14 36 -14 45 1
11 3 10 6 -4 3 -11 9 -24 14 -29z m69 -150 c0 -12 -5 -7 -19 24 -11 24 -11 24
3 6 9 -11 16 -24 16 -30z m20 -44 c0 -15 -2 -15 -10 -2 -13 20 -13 33 0 25 6
-3 10 -14 10 -23z m3167 -14 c-3 -8 -6 -5 -6 6 -1 11 2 17 5 13 3 -3 4 -12 1
-19z m-3069 -203 c-3 -3 -9 2 -12 12 -6 14 -5 15 5 6 7 -7 10 -15 7 -18z
m1617 -155 c-3 -5 -10 -10 -16 -10 -5 0 -9 5 -9 10 0 6 7 10 16 10 8 0 12 -4
9 -10z m-1517 -49 l2 -26 -15 29 c-18 35 -19 51 -2 35 7 -7 14 -24 15 -38z
m19 -63 c-3 -8 -6 -5 -6 6 -1 11 2 17 5 13 3 -3 4 -12 1 -19z m1298 12 c-3 -5
-12 -10 -18 -10 -7 0 -6 4 3 10 19 12 23 12 15 0z m-69 -29 c-3 -5 -16 -11
-28 -14 -22 -6 -22 -5 -4 8 22 17 40 20 32 6z m-126 -56 c-34 -20 -60 -20 -34
0 10 8 28 14 39 14 18 0 17 -1 -5 -14z m-60 -13 c0 -8 -100 -56 -105 -50 -2 2
12 12 33 22 20 10 44 22 52 27 19 10 20 10 20 1z m-205 -82 c8 -13 -5 -13 -25
0 -13 8 -13 10 2 10 9 0 20 -4 23 -10z m-725 -40 c0 -5 -4 -10 -10 -10 -5 0
-10 5 -10 10 0 6 5 10 10 10 6 0 10 -4 10 -10z m660 6 c0 -2 -7 -6 -15 -10 -8
-3 -15 -1 -15 4 0 6 7 10 15 10 8 0 15 -2 15 -4z m-76 -30 c-10 -8 -21 -12
-24 -10 -5 6 21 24 34 24 6 0 1 -6 -10 -14z m-577 -18 c-3 -8 -6 -5 -6 6 -1
11 2 17 5 13 3 -3 4 -12 1 -19z m23 -18 c0 -5 -5 -10 -11 -10 -5 0 -7 5 -4 10
3 6 8 10 11 10 2 0 4 -4 4 -10z m24 -62 c8 -5 7 -8 -1 -8 -7 0 -17 9 -23 19
-14 27 -12 41 2 16 6 -11 16 -23 22 -27z m340 35 c-5 -5 -12 -12 -16 -18 -4
-6 -8 -2 -8 8 0 9 7 17 17 17 9 0 12 -3 7 -7z m-64 -31 c0 -5 -12 -14 -27 -21
-28 -13 -28 -13 -9 8 20 22 36 27 36 13z m2357 -119 c-2 -16 -4 -5 -4 22 0 28
2 40 4 28 2 -13 2 -35 0 -50z m-2577 17 c0 -5 -4 -10 -9 -10 -6 0 -13 5 -16
10 -3 6 1 10 9 10 9 0 16 -4 16 -10z m239 -986 c16 -37 9 -39 -11 -3 -9 16
-14 29 -9 29 4 0 13 -12 20 -26z m42 -91 c12 -27 43 -95 69 -153 83 -185 316
-691 375 -815 31 -66 113 -241 182 -390 69 -148 159 -339 200 -425 41 -85 83
-175 93 -200 10 -25 44 -99 75 -165 31 -66 68 -145 82 -175 14 -30 64 -138
110 -240 47 -102 99 -212 115 -245 16 -33 64 -134 105 -225 204 -447 371 -725
512 -851 134 -121 306 -214 517 -280 277 -87 306 -100 362 -167 41 -48 45 -67
15 -55 -9 4 -22 -2 -30 -13 -12 -17 -34 -20 -221 -27 -263 -10 -604 0 -701 20
-150 30 -285 96 -410 201 -68 58 -83 72 -155 157 -92 107 -208 305 -343 585
-256 528 -237 488 -551 1160 -58 124 -210 456 -315 685 -58 127 -153 336 -212
465 -59 129 -129 285 -155 345 -26 61 -66 149 -88 198 -61 130 -36 105 34 -36
41 -81 67 -123 80 -126 16 -3 17 -2 4 14 -12 14 -12 19 -2 22 6 3 12 9 12 14
0 19 36 49 67 55 19 4 39 17 50 33 l17 26 7 -30 c6 -28 7 -28 8 -4 1 28 53 83
89 94 22 6 31 25 11 25 -5 0 -7 5 -4 10 5 8 11 7 21 -1 11 -9 18 -8 32 5 10 9
26 16 35 16 9 0 23 14 32 30 9 17 18 30 21 30 3 0 2 -5 -1 -10 -3 -6 1 -13 9
-16 8 -3 18 -14 21 -25 4 -10 10 -19 15 -19 5 0 2 12 -5 28 -7 15 -46 106 -85
202 -40 96 -85 205 -101 242 -16 36 -29 69 -29 72 0 15 10 2 31 -41z m2056
-3949 c-7 -7 -37 7 -37 17 0 6 9 5 21 -1 11 -7 19 -14 16 -16z m763 -349 c13
-14 21 -25 18 -25 -2 0 -15 11 -28 25 -13 14 -21 25 -18 25 2 0 15 -11 28 -25z"/>
<path d="M7335 10118 c-15 -35 -59 -128 -97 -208 -39 -80 -94 -197 -123 -260
-29 -63 -87 -187 -130 -275 -91 -189 -123 -258 -200 -425 -32 -69 -61 -129
-65 -135 -4 -5 -59 -118 -123 -250 -63 -132 -148 -310 -189 -395 -94 -194
-128 -268 -128 -273 0 -3 -45 -97 -100 -211 -55 -113 -100 -208 -100 -211 0
-4 -25 -59 -56 -123 -31 -64 -74 -155 -96 -202 -22 -47 -63 -132 -90 -190 -28
-58 -77 -166 -110 -240 -62 -138 -97 -215 -187 -402 -28 -59 -51 -109 -51
-111 0 -6 -94 -206 -180 -382 -38 -77 -89 -185 -115 -240 -57 -120 -131 -276
-232 -485 -42 -85 -89 -184 -105 -220 -42 -96 -72 -150 -81 -150 -5 0 -6 3 -4
8 3 4 15 30 27 57 33 74 82 179 181 382 49 100 89 186 89 190 0 4 27 62 59
128 83 167 151 312 151 323 0 5 9 20 21 33 11 13 23 36 26 52 3 15 10 30 14
33 16 9 9 24 -8 17 -11 -4 -14 -3 -9 5 4 7 14 12 22 12 8 0 17 8 21 18 3 9 17
41 29 70 13 29 24 55 24 57 0 3 11 22 24 43 31 50 43 86 25 79 -8 -2 -13 -10
-11 -17 2 -11 0 -11 -11 -2 -8 7 -22 10 -31 6 -13 -5 -16 2 -16 45 0 37 -4 51
-14 51 -17 0 -26 -86 -11 -101 11 -11 -12 -31 -30 -26 -17 6 -18 47 -1 47 10
0 16 9 16 25 0 14 -2 25 -4 25 -3 0 -25 -11 -50 -24 -25 -13 -51 -26 -58 -28
-8 -3 -15 -33 -19 -84 l-6 -79 1 85 c1 47 6 94 10 105 7 15 6 17 -3 9 -7 -7
-32 -9 -59 -7 -62 7 -101 45 -103 100 -1 34 -2 32 -9 -15 -8 -52 -20 -82 -20
-49 0 9 -5 17 -11 17 -7 0 -10 15 -7 40 2 27 0 40 -9 40 -6 0 -14 -4 -18 -10
-3 -5 -12 -7 -19 -4 -7 3 -16 -2 -19 -10 -7 -18 -27 -22 -27 -5 0 5 5 7 12 3
7 -5 9 -2 5 9 -6 16 13 67 26 67 4 0 7 9 7 20 0 10 6 23 14 27 8 4 14 17 13
28 -1 12 5 20 18 23 17 3 18 1 5 -8 -13 -10 -12 -11 3 -6 10 3 23 6 28 6 5 0
9 7 9 15 0 12 -7 14 -27 9 -26 -7 -27 -6 -13 11 8 10 14 20 13 22 -11 14 0 23
14 12 15 -12 16 -12 10 4 -4 10 -4 30 -1 44 5 19 9 22 16 11 8 -10 9 -9 4 5
-3 9 -3 24 1 33 5 14 8 12 19 -7 9 -18 10 -27 1 -39 -10 -13 -10 -13 6 -1 18
14 23 41 8 41 -15 0 -18 34 -6 63 6 15 14 25 17 21 4 -3 15 -1 25 5 17 10 17
10 -2 12 -17 1 -16 2 5 9 24 8 24 8 3 9 -27 1 -30 16 -5 30 9 6 13 11 8 11 -5
0 -3 7 4 15 7 8 9 15 5 15 -5 0 0 9 10 20 10 11 15 20 11 20 -4 0 9 31 30 70
20 38 40 68 44 65 4 -3 8 7 9 20 3 48 4 55 12 55 9 0 32 66 27 80 -2 6 -16
-20 -31 -57 -16 -37 -36 -81 -45 -98 -26 -50 -30 -58 -61 -126 -17 -37 -31
-72 -31 -78 0 -6 -4 -11 -10 -11 -5 0 -10 -4 -10 -10 0 -5 -22 -56 -49 -112
-253 -532 -255 -538 -235 -538 8 0 13 -4 9 -10 -3 -5 -11 -7 -18 -4 -13 4 -48
-65 -162 -316 -83 -180 -102 -223 -155 -335 -26 -55 -55 -118 -65 -140 -10
-22 -44 -94 -75 -160 -32 -66 -87 -185 -123 -265 -60 -132 -115 -253 -184
-400 -43 -92 -155 -313 -175 -345 -10 -16 -21 -37 -24 -45 -11 -23 -72 -106
-120 -163 -24 -27 -41 -54 -38 -58 3 -5 -1 -6 -9 -3 -8 3 -17 -1 -20 -9 -6
-16 -144 -120 -211 -160 -26 -15 -44 -32 -41 -37 11 -17 1261 -13 1446 5 178
17 326 43 454 79 209 60 438 180 619 324 113 90 240 218 231 232 -5 8 -4 11 3
7 5 -4 29 14 52 40 49 56 190 251 190 264 0 21 -17 5 -49 -46 -19 -30 -38 -52
-42 -49 -4 2 -10 -9 -14 -26 -6 -28 -16 -35 -40 -30 -5 1 -18 2 -27 3 -10 1
-18 7 -18 14 0 13 24 8 47 -9 7 -5 14 -5 17 1 3 5 0 12 -6 14 -8 4 -7 6 3 6
22 1 49 91 28 91 -7 0 -9 9 -5 23 3 12 3 33 -1 45 -4 18 -12 22 -44 22 -28 0
-39 -4 -39 -15 0 -19 -24 -19 -54 0 -21 14 -24 14 -29 0 -9 -22 -50 -19 -67 5
-12 17 -26 20 -88 20 -55 0 -74 4 -78 15 -4 8 -11 12 -16 9 -10 -7 -28 13 -28
31 0 6 5 3 10 -5 7 -12 12 -12 22 -2 14 14 48 16 48 2 0 -5 9 -10 20 -10 11 0
20 5 20 10 0 6 -9 10 -20 10 -12 0 -20 7 -20 16 0 9 9 18 20 21 11 3 20 9 20
14 0 14 -48 11 -52 -3 -4 -10 -11 -10 -34 0 -23 10 -26 10 -14 0 17 -14 20
-32 8 -44 -5 -4 -8 0 -8 9 0 11 -6 15 -17 11 -13 -4 -14 -3 -5 3 7 6 12 14 11
19 -3 14 12 44 23 44 6 0 8 -6 5 -13 -3 -8 1 -14 8 -14 9 0 11 7 6 20 -8 21
17 87 32 87 4 0 5 -5 1 -12 -4 -6 -3 -8 4 -4 6 3 15 -2 21 -11 9 -16 10 -16
11 -2 0 9 -7 19 -15 23 -8 3 -15 15 -15 27 0 18 2 19 15 9 8 -7 12 -16 9 -21
-3 -5 2 -9 10 -9 8 0 18 5 21 10 3 6 0 10 -8 10 -21 0 -27 34 -11 62 7 12 16
30 19 38 4 8 22 47 41 85 19 39 34 75 34 82 0 7 6 11 13 9 6 -1 9 -1 5 1 -4 3
-2 16 3 31 9 24 107 224 128 262 5 8 14 33 21 55 7 22 32 80 57 129 24 49 42
91 39 93 -4 4 -90 -167 -144 -287 -74 -165 -113 -247 -190 -399 -45 -90 -90
-176 -100 -190 -9 -14 -21 -33 -27 -42 -219 -350 -477 -542 -816 -610 -159
-31 -485 -72 -501 -63 -16 10 -2 71 33 143 18 36 41 86 53 110 11 24 22 39 23
34 2 -5 -22 -65 -53 -132 -38 -86 -52 -127 -45 -134 12 -12 133 1 387 43 200
34 265 54 394 122 114 60 183 111 271 198 179 178 277 338 514 845 18 39 53
113 78 165 24 52 54 118 67 145 12 28 40 88 62 135 113 240 246 527 288 620
84 186 201 443 232 510 71 153 254 552 290 635 60 137 178 369 243 475 116
191 203 299 391 486 l182 182 -23 48 c-71 149 -125 266 -125 270 0 3 -18 43
-40 90 -22 47 -40 87 -40 89 0 5 -309 663 -363 773 -17 34 -34 62 -37 62 -4 0
-20 -28 -35 -62z m-832 -2163 c-3 -9 -8 -14 -10 -11 -3 3 -2 9 2 15 9 16 15
13 8 -4z m-20 -40 c-3 -9 -8 -14 -10 -11 -3 3 -2 9 2 15 9 16 15 13 8 -4z
m-122 -262 c-12 -20 -14 -14 -5 12 4 9 9 14 11 11 3 -2 0 -13 -6 -23z m-1356
-1302 c3 -5 1 -13 -5 -16 -15 -9 -43 3 -35 15 8 13 32 13 40 1z m-70 -31 c-3
-5 1 -10 9 -10 20 0 21 -16 1 -24 -8 -3 -15 -15 -15 -26 0 -22 -1 -23 -24 -14
-9 3 -16 14 -16 23 1 13 3 13 17 -4 15 -19 15 -19 9 10 -5 23 -4 27 5 15 8
-12 9 -9 5 13 -4 16 -2 27 4 27 6 0 8 -4 5 -10z m155 -66 c0 -13 12 -18 33
-15 4 0 7 -17 7 -40 0 -26 -4 -38 -11 -34 -6 4 -8 14 -5 22 7 17 -11 38 -42
47 -21 7 -29 26 -16 39 10 9 34 -4 34 -19z m-43 -34 c3 -10 2 -11 -4 -3 -4 6
-26 13 -48 16 -40 4 -40 4 4 3 30 -1 46 -6 48 -16z m149 -58 c-13 -12 -18 9
-10 45 l8 38 4 -39 c2 -21 1 -41 -2 -44z m81 56 c-3 -8 -6 -5 -6 6 -1 11 2 17
5 13 3 -3 4 -12 1 -19z m-405 -10 c-7 -7 -12 -8 -12 -2 0 14 12 26 19 19 2 -3
-1 -11 -7 -17z m228 -8 c0 -5 -9 -10 -20 -10 -25 0 -26 -17 -2 -23 13 -4 12
-5 -5 -6 -12 0 -25 4 -28 9 -3 6 -20 10 -37 10 -43 0 -29 10 16 12 20 1 36 5
36 10 0 4 9 8 20 8 11 0 20 -4 20 -10z m325 -10 c3 -5 1 -10 -4 -10 -6 0 -11
5 -11 10 0 6 2 10 4 10 3 0 8 -4 11 -10z m-105 -57 c0 -7 -7 -13 -16 -13 -11
0 -15 6 -11 20 3 11 1 20 -4 20 -5 0 -9 5 -9 12 0 6 9 3 20 -7 11 -10 20 -24
20 -32z m89 25 c9 3 11 0 6 -8 -4 -6 -16 -10 -26 -7 -11 3 -19 4 -19 3 0 0 4
-15 9 -33 8 -26 7 -31 -5 -26 -9 3 -13 11 -10 18 2 7 0 17 -6 23 -17 17 -2 45
19 34 10 -5 24 -7 32 -4z m-549 -15 c0 -10 -4 -14 -8 -8 -4 6 -11 13 -16 18
-5 4 -2 7 7 7 10 0 17 -8 17 -17z m140 -28 c0 -34 -5 -47 -20 -55 -14 -7 -20
-7 -20 0 0 5 5 10 10 10 6 0 10 20 10 45 0 25 5 45 10 45 6 0 10 -20 10 -45z
m48 -38 c12 -3 11 -5 -5 -6 -21 -1 -23 3 -21 47 l1 47 4 -42 c3 -29 9 -43 21
-46z m209 21 c-2 -13 -4 -3 -4 22 0 25 2 35 4 23 2 -13 2 -33 0 -45z m-377 3
c0 -18 -18 -21 -30 -6 -10 13 -9 15 9 15 11 0 21 -4 21 -9z m475 -21 c8 0 17
-5 20 -10 4 -7 -3 -8 -21 -4 -25 6 -27 5 -22 -19 5 -26 0 -27 -30 -4 -10 8 -8
15 10 34 12 13 24 19 26 14 2 -6 10 -11 17 -11z m-505 -10 c0 -5 -4 -10 -10
-10 -5 0 -10 5 -10 10 0 6 5 10 10 10 6 0 10 -4 10 -10z m185 -20 c3 -5 -3
-10 -14 -10 -10 0 -21 -6 -24 -12 -4 -10 -7 -10 -18 0 -11 10 -10 12 4 12 9 0
17 5 17 10 0 6 6 10 14 10 8 0 18 -4 21 -10z m-231 -50 c16 -34 3 -42 -15 -8
-11 21 -12 21 -25 3 -8 -10 -14 -14 -14 -8 0 11 27 43 35 43 2 0 10 -13 19
-30z m261 2 c-7 -8 -45 10 -40 19 4 5 14 3 25 -3 11 -7 17 -14 15 -16z m-185
-18 c0 -8 -5 -12 -10 -9 -6 4 -8 11 -5 16 9 14 15 11 15 -7z m460 12 c0 -2 -7
-7 -16 -10 -8 -3 -12 -2 -9 4 6 10 25 14 25 6z m-40 -32 c0 -8 -4 -14 -10 -14
-5 0 -10 9 -10 21 0 11 5 17 10 14 6 -3 10 -13 10 -21z m-227 9 c-7 -2 -19 -2
-25 0 -7 3 -2 5 12 5 14 0 19 -2 13 -5z m-296 -23 c-1 -22 -17 -28 -17 -7 0
12 9 27 16 27 2 0 2 -9 1 -20z m50 -6 c-3 -3 -12 -4 -19 -1 -8 3 -5 6 6 6 11
1 17 -2 13 -5z m130 -66 c-3 -8 -6 -5 -6 6 -1 11 2 17 5 13 3 -3 4 -12 1 -19z
m-87 -28 c0 -5 -4 -10 -10 -10 -5 0 -10 5 -10 10 0 6 5 10 10 10 6 0 10 -4 10
-10z m-177 -28 c-3 -12 -9 -19 -14 -16 -5 3 -4 14 2 25 13 26 20 21 12 -9z
m547 3 c0 -8 -2 -15 -4 -15 -2 0 -6 7 -10 15 -3 8 -1 15 4 15 6 0 10 -7 10
-15z m620 -1023 c0 -10 -22 -32 -32 -32 -5 0 -3 9 4 20 13 20 28 27 28 12z
m-24 -63 c0 -13 -3 -15 -13 -7 -7 6 -13 14 -13 18 0 3 6 7 13 7 7 0 13 -8 13
-18z m74 12 c0 -5 -6 -14 -14 -20 -10 -9 -15 -8 -19 3 -3 8 -3 17 0 20 9 9 33
7 33 -3z m-96 -40 c11 -12 14 -21 7 -26 -6 -3 -11 1 -11 10 0 13 -4 14 -21 5
-11 -7 -23 -9 -27 -6 -3 3 0 6 6 6 7 0 12 7 12 15 0 20 13 19 34 -4z m166 -1
c0 -5 -6 -10 -14 -10 -8 0 -18 5 -21 10 -3 6 3 10 14 10 12 0 21 -4 21 -10z
m304 -2 c11 -11 11 -17 -3 -38 -8 -14 -20 -28 -25 -31 -5 -4 1 -10 14 -14 15
-5 19 -10 12 -17 -6 -6 -18 -8 -26 -5 -23 9 -23 117 -1 117 9 0 22 -6 29 -12z
m-1545 -84 c-13 -26 -24 -43 -26 -37 -2 6 6 33 18 59 13 26 24 43 26 37 2 -6
-6 -33 -18 -59z m1040 29 c2 -2 -5 -3 -16 -3 -11 0 -20 7 -20 15 0 12 3 12 16
3 9 -7 18 -14 20 -15z m156 -3 c3 -5 1 -10 -4 -10 -6 0 -11 5 -11 10 0 6 2 10
4 10 3 0 8 -4 11 -10z m65 0 c0 -5 -4 -10 -10 -10 -5 0 -10 5 -10 10 0 6 5 10
10 10 6 0 10 -4 10 -10z m-253 -16 c-3 -3 -12 -4 -19 -1 -8 3 -5 6 6 6 11 1
17 -2 13 -5z m578 -4 c3 -5 -1 -10 -9 -10 -9 0 -16 5 -16 10 0 6 4 10 9 10 6
0 13 -4 16 -10z m-635 -38 c0 -13 -12 -22 -22 -16 -10 6 -1 24 13 24 5 0 9 -4
9 -8z m587 -75 c-2 -6 -10 -11 -19 -13 -10 -1 -15 3 -12 10 6 15 36 17 31 3z
m-62 -47 c4 -6 11 -8 16 -5 12 8 -2 -25 -20 -47 -19 -22 -38 -23 -38 -3 0 9 6
14 12 11 16 -6 38 31 23 40 -6 4 -16 0 -23 -9 -7 -9 -15 -14 -18 -10 -12 11
-8 21 11 26 28 8 31 7 37 -3z m-98 -106 c-3 -3 -12 -4 -19 -1 -8 3 -5 6 6 6
11 1 17 -2 13 -5z m19 -29 c-9 -9 -16 -13 -16 -8 0 12 22 34 28 28 2 -2 -3
-11 -12 -20z"/>
<path d="M5686 8015 c-9 -26 -7 -32 5 -12 6 10 9 21 6 23 -2 3 -7 -2 -11 -11z"/>
<path d="M5645 7940 c-3 -5 -1 -10 4 -10 6 0 11 5 11 10 0 6 -2 10 -4 10 -3 0
-8 -4 -11 -10z"/>
<path d="M5576 7785 c-9 -26 -7 -32 5 -12 6 10 9 21 6 23 -2 3 -7 -2 -11 -11z"/>
<path d="M5539 7704 c-5 -15 -12 -32 -15 -38 -3 -6 4 0 15 14 11 14 21 31 21
38 0 20 -10 14 -21 -14z"/>
<path d="M5466 7550 c-38 -79 -46 -104 -37 -113 7 -7 11 -7 9 -2 -5 18 43 136
53 129 6 -3 9 0 8 7 -2 8 3 24 10 37 7 13 11 28 9 34 -2 5 -26 -36 -52 -92z"/>
<path d="M6061 7504 c0 -11 3 -14 6 -6 3 7 2 16 -1 19 -3 4 -6 -2 -5 -13z"/>
<path d="M5392 7391 c-11 -23 -17 -43 -12 -46 8 -5 23 20 25 40 0 6 4 16 9 23
4 7 6 16 3 19 -3 3 -15 -13 -25 -36z"/>
<path d="M5985 7350 c-3 -5 -1 -10 4 -10 6 0 11 5 11 10 0 6 -2 10 -4 10 -3 0
-8 -4 -11 -10z"/>
<path d="M5350 7306 c-5 -15 -15 -37 -21 -48 -6 -11 -7 -18 -1 -14 14 8 45 76
38 83 -3 3 -10 -6 -16 -21z"/>
<path d="M5880 7136 c0 -8 -6 -17 -12 -19 -8 -4 -7 -6 3 -6 9 -1 19 8 22 19 3
11 1 20 -4 20 -5 0 -9 -6 -9 -14z"/>
<path d="M5849 7064 c-6 -16 -16 -37 -21 -48 -7 -12 -6 -16 1 -11 14 8 43 76
37 83 -3 2 -10 -8 -17 -24z"/>
<path d="M5250 7021 c0 -6 4 -13 10 -16 6 -3 7 1 4 9 -7 18 -14 21 -14 7z"/>
<path d="M5235 6980 c3 -5 8 -10 11 -10 2 0 4 5 4 10 0 6 -5 10 -11 10 -5 0
-7 -4 -4 -10z"/>
<path d="M5802 6978 c-15 -15 -15 -28 -1 -28 5 0 8 4 5 9 -4 5 0 11 6 14 7 2
10 7 7 10 -3 4 -11 1 -17 -5z"/>
<path d="M7495 6979 c-4 -6 -5 -12 -2 -15 2 -3 7 2 10 11 7 17 1 20 -8 4z"/>
<path d="M5782 6927 c-7 -8 -10 -16 -7 -19 3 -3 -1 -11 -10 -18 -8 -7 -15 -18
-15 -26 0 -7 -13 -35 -28 -61 -16 -27 -27 -54 -24 -61 2 -6 -1 -12 -7 -12 -6
0 -11 -7 -11 -15 0 -15 -39 -95 -47 -95 -2 0 -1 10 2 21 5 15 4 19 -5 14 -6
-4 -9 -17 -6 -29 3 -12 1 -35 -3 -51 -5 -17 -10 -25 -10 -18 -1 7 -8 10 -16 7
-8 -4 -13 -10 -10 -14 10 -16 -19 -61 -42 -67 -18 -4 -22 -8 -13 -17 8 -8 14
-7 21 4 8 12 9 11 7 -5 -2 -12 -11 -19 -21 -19 -9 1 -17 -2 -17 -7 0 -4 -17
-10 -37 -12 -36 -4 -35 -4 4 -3 26 1 45 -4 48 -11 2 -7 1 -12 -3 -12 -22 4
-33 -3 -28 -16 6 -17 -20 -85 -34 -85 -5 0 -12 5 -16 12 -5 7 -2 9 9 5 11 -4
14 -2 10 9 -3 8 -12 13 -19 10 -8 -3 -14 -1 -14 4 0 6 -4 10 -10 10 -13 0 -6
-98 8 -112 9 -9 12 -9 12 0 0 7 9 12 19 12 12 0 23 11 30 28 5 15 16 38 24 52
8 14 24 45 35 70 63 139 123 267 131 281 5 9 13 33 16 53 4 20 11 33 16 30 5
-3 10 0 10 5 2 19 5 25 37 95 31 68 36 90 14 63z m-317 -646 c3 -5 1 -12 -5
-16 -5 -3 -10 1 -10 9 0 18 6 21 15 7z"/>
<path d="M7395 6753 c-8 -20 -13 -38 -10 -41 3 -3 5 -3 5 0 0 3 7 22 15 42 8
20 13 36 10 36 -2 0 -12 -16 -20 -37z"/>
<path d="M5230 6750 c0 -5 5 -10 10 -10 6 0 10 5 10 10 0 6 -4 10 -10 10 -5 0
-10 -4 -10 -10z"/>
<path d="M5150 6720 c0 -5 5 -10 10 -10 6 0 10 5 10 10 0 6 -4 10 -10 10 -5 0
-10 -4 -10 -10z"/>
<path d="M5220 6689 c0 -5 5 -7 10 -4 6 3 10 8 10 11 0 2 -4 4 -10 4 -5 0 -10
-5 -10 -11z"/>
<path d="M5640 6684 c0 -8 5 -12 10 -9 6 3 10 10 10 16 0 5 -4 9 -10 9 -5 0
-10 -7 -10 -16z"/>
<path d="M5150 6670 c-12 -8 -11 -10 8 -10 12 0 22 5 22 10 0 13 -11 13 -30 0z"/>
<path d="M5206 6645 c-16 -17 -102 -19 -112 -3 -3 4 -10 8 -16 8 -7 0 -6 -5 2
-15 6 -8 9 -24 5 -37 l-6 -23 20 23 c14 16 30 22 60 22 54 0 53 -18 -1 -23
l-43 -4 42 -1 c30 -2 43 -7 46 -19 3 -10 5 1 6 24 1 31 5 42 19 45 11 2 13 6
5 11 -6 4 -18 0 -27 -8z"/>
<path d="M6725 6649 c-4 -6 -5 -12 -2 -15 2 -3 7 2 10 11 7 17 1 20 -8 4z"/>
<path d="M5282 6620 c0 -14 2 -19 5 -12 2 6 2 18 0 25 -3 6 -5 1 -5 -13z"/>
<path d="M7327 6593 c-4 -3 -7 -11 -7 -17 0 -6 5 -5 12 2 6 6 9 14 7 17 -3 3
-9 2 -12 -2z"/>
<path d="M5110 6569 c0 -15 18 -19 41 -10 22 8 22 8 -9 13 -18 2 -32 1 -32 -3z"/>
<path d="M5320 6570 c0 -5 5 -10 11 -10 5 0 7 5 4 10 -3 6 -8 10 -11 10 -2 0
-4 -4 -4 -10z"/>
<path d="M5247 6536 c15 -14 30 -20 32 -15 4 12 -28 38 -47 39 -7 0 0 -11 15
-24z"/>
<path d="M5295 6541 c-7 -12 12 -24 25 -16 11 7 4 25 -10 25 -5 0 -11 -4 -15
-9z"/>
<path d="M5506 6541 c-4 -6 -2 -11 3 -11 6 0 11 -4 11 -10 0 -5 -7 -10 -15
-10 -8 0 -15 -4 -15 -10 0 -19 25 -9 44 17 11 14 14 23 7 18 -8 -4 -16 -2 -21
5 -5 9 -9 9 -14 1z"/>
<path d="M7292 6515 c-17 -37 -14 -45 4 -12 9 16 14 31 11 33 -2 2 -9 -7 -15
-21z"/>
<path d="M5090 6520 c0 -5 7 -10 15 -10 8 0 15 5 15 10 0 6 -7 10 -15 10 -8 0
-15 -4 -15 -10z"/>
<path d="M5440 6520 c0 -5 5 -10 11 -10 5 0 7 5 4 10 -3 6 -8 10 -11 10 -2 0
-4 -4 -4 -10z"/>
<path d="M5025 6511 c3 -6 -3 -15 -12 -21 -17 -11 -17 -11 0 -6 33 10 18 -21
-25 -50 -29 -21 -37 -30 -25 -32 9 -2 24 4 33 12 8 9 22 16 30 16 8 0 14 10
14 25 0 18 5 25 20 25 11 0 20 5 20 11 0 7 -10 9 -24 7 -17 -4 -23 -1 -19 9 3
7 0 13 -7 13 -6 0 -9 -4 -5 -9z"/>
<path d="M5135 6510 c-3 -5 3 -10 14 -10 12 0 21 -7 21 -15 0 -8 7 -15 15 -15
18 0 20 21 3 38 -15 15 -45 16 -53 2z"/>
<path d="M5200 6510 c0 -5 5 -10 10 -10 6 0 10 5 10 10 0 6 -4 10 -10 10 -5 0
-10 -4 -10 -10z"/>
<path d="M5361 6508 c0 -9 -4 -25 -7 -35 -5 -17 -5 -17 6 0 6 10 9 25 7 35 -4
15 -5 15 -6 0z"/>
<path d="M5235 6490 c-4 -6 3 -10 14 -10 25 0 27 6 6 13 -8 4 -17 2 -20 -3z"/>
<path d="M5300 6490 c0 -5 5 -10 10 -10 6 0 10 5 10 10 0 6 -4 10 -10 10 -5 0
-10 -4 -10 -10z"/>
<path d="M5440 6480 c0 -5 5 -10 10 -10 6 0 10 5 10 10 0 6 -4 10 -10 10 -5 0
-10 -4 -10 -10z"/>
<path d="M6643 6475 c-3 -9 -3 -18 -1 -21 3 -3 8 4 11 16 6 23 -1 27 -10 5z"/>
<path d="M5385 6461 c-7 -12 12 -24 25 -16 11 7 4 25 -10 25 -5 0 -11 -4 -15
-9z"/>
<path d="M7260 6454 c0 -8 5 -12 10 -9 6 3 10 10 10 16 0 5 -4 9 -10 9 -5 0
-10 -7 -10 -16z"/>
<path d="M5285 6420 c-11 -12 -13 -20 -6 -20 6 0 11 -10 10 -22 -3 -39 1 -58
12 -58 6 0 8 7 5 17 -4 9 -1 32 5 50 14 44 0 62 -26 33z"/>
<path d="M5168 6423 c6 -2 18 -2 25 0 6 3 1 5 -13 5 -14 0 -19 -2 -12 -5z"/>
<path d="M7241 6404 c0 -11 3 -14 6 -6 3 7 2 16 -1 19 -3 4 -6 -2 -5 -13z"/>
<path d="M5374 6395 c-16 -13 -17 -16 -4 -25 8 -5 22 -8 30 -6 8 3 25 7 38 11
13 4 22 2 22 -4 0 -6 4 -11 9 -11 5 0 7 9 4 21 -5 16 -11 19 -34 14 -18 -4
-29 -2 -29 4 0 15 -13 14 -36 -4z"/>
<path d="M5111 6358 c1 -24 4 -34 6 -24 3 11 11 26 19 34 20 19 17 32 -6 32
-17 0 -20 -6 -19 -42z"/>
<path d="M5336 6377 c-5 -15 -6 -31 -2 -34 11 -11 18 5 14 34 l-4 28 -8 -28z"/>
<path d="M7208 6322 c-15 -31 -25 -59 -22 -61 2 -2 15 22 29 54 14 31 24 59
22 61 -1 2 -15 -22 -29 -54z"/>
<path d="M5247 6354 c-4 -12 -5 -29 -1 -38 7 -17 34 -22 34 -6 0 6 -4 10 -9
10 -5 0 -11 12 -13 28 -3 25 -4 25 -11 6z"/>
<path d="M5202 6335 c0 -16 2 -22 5 -12 2 9 2 23 0 30 -3 6 -5 -1 -5 -18z"/>
<path d="M5368 6338 c9 -9 15 -9 24 0 9 9 7 12 -12 12 -19 0 -21 -3 -12 -12z"/>
<path d="M6545 6259 c-9 -17 -15 -33 -13 -35 3 -2 12 12 21 31 21 43 13 47 -8
4z"/>
<path d="M7171 6234 c0 -11 3 -14 6 -6 3 7 2 16 -1 19 -3 4 -6 -2 -5 -13z"/>
<path d="M6511 6183 c-10 -26 -10 -27 4 -9 8 11 15 23 15 28 0 15 -7 8 -19
-19z"/>
<path d="M7141 6178 c-14 -23 -32 -78 -26 -78 6 0 46 92 42 96 -1 2 -9 -7 -16
-18z"/>
<path d="M6491 6134 c0 -11 3 -14 6 -6 3 7 2 16 -1 19 -3 4 -6 -2 -5 -13z"/>
<path d="M6456 6074 c-4 -9 -4 -19 -1 -22 2 -3 7 3 11 12 4 9 4 19 1 22 -2 3
-7 -3 -11 -12z"/>
<path d="M7052 5978 c-29 -61 -51 -113 -49 -115 3 -2 15 18 27 44 50 106 80
176 77 179 -2 2 -27 -46 -55 -108z"/>
<path d="M6430 6015 c0 -8 2 -15 4 -15 2 0 6 7 10 15 3 8 1 15 -4 15 -6 0 -10
-7 -10 -15z"/>
<path d="M6383 5908 c-18 -24 -24 -38 -16 -38 10 0 36 40 30 46 -2 3 -9 -1
-14 -8z"/>
<path d="M6946 5747 c-44 -92 -234 -485 -259 -534 -12 -23 -26 -39 -32 -35 -5
3 -4 -1 2 -9 10 -13 9 -19 -5 -35 -10 -11 -17 -25 -14 -32 2 -6 -1 -12 -7 -12
-5 0 -15 -16 -22 -35 -7 -19 -18 -35 -24 -35 -6 0 -15 -19 -21 -42 -6 -28 -14
-42 -23 -40 -7 2 -11 -3 -9 -10 7 -18 -9 -58 -22 -58 -6 0 -8 5 -4 12 4 7 3 8
-4 4 -7 -4 -12 0 -13 11 0 11 -3 13 -6 5 -3 -7 3 -22 13 -33 17 -18 17 -22 4
-32 -9 -7 -21 -23 -27 -37 -6 -14 -12 -19 -12 -12 -1 15 -31 16 -31 1 0 -5 5
-7 12 -3 8 5 9 2 5 -9 -4 -10 -1 -17 6 -17 7 -1 2 -6 -11 -13 -12 -7 -21 -15
-20 -18 2 -2 -1 -1 -7 4 -6 5 -5 11 3 16 10 6 9 11 -4 22 -12 9 -15 10 -10 2
4 -8 2 -13 -4 -13 -7 0 -14 9 -17 20 -8 32 -32 23 -39 -15 -8 -43 2 -77 16
-55 5 8 12 12 15 8 4 -3 -2 -15 -13 -26 -13 -13 -18 -28 -15 -46 6 -28 23 -26
23 3 0 10 7 24 15 31 11 9 14 23 10 44 -5 28 -4 29 6 9 22 -42 37 -35 78 36
46 79 175 331 243 476 54 116 122 261 202 429 31 66 55 123 54 127 -2 4 -16
-20 -32 -54z"/>
<path d="M6046 5131 c-6 -10 24 -25 32 -16 3 3 0 5 -7 5 -7 0 -9 5 -6 10 3 6
2 10 -4 10 -5 0 -12 -4 -15 -9z"/>
<path d="M6020 5070 c-6 -11 -7 -20 -2 -20 10 0 32 21 32 32 0 16 -19 8 -30
-12z"/>
<path d="M6048 5043 c7 -3 16 -2 19 1 4 3 -2 6 -13 5 -11 0 -14 -3 -6 -6z"/>
<path d="M6080 5024 c0 -8 5 -12 10 -9 6 3 10 10 10 16 0 5 -4 9 -10 9 -5 0
-10 -7 -10 -16z"/>
<path d="M5957 4953 c-10 -16 -4 -63 7 -63 7 0 12 15 12 35 0 33 -9 45 -19 28z"/>
<path d="M6497 4949 c7 -7 15 -10 18 -7 3 3 -2 9 -12 12 -14 6 -15 5 -6 -5z"/>
<path d="M5985 4920 c-3 -5 -1 -10 4 -10 6 0 11 5 11 10 0 6 -2 10 -4 10 -3 0
-8 -4 -11 -10z"/>
<path d="M6080 4790 c0 -5 5 -10 10 -10 6 0 10 -9 10 -21 0 -14 5 -19 17 -17
25 5 28 29 4 35 -12 3 -21 9 -21 14 0 5 -4 9 -10 9 -5 0 -10 -4 -10 -10z"/>
<path d="M9100 7431 c0 -6 4 -13 10 -16 6 -3 7 1 4 9 -7 18 -14 21 -14 7z"/>
<path d="M10200 4041 c0 -6 4 -13 10 -16 6 -3 7 1 4 9 -7 18 -14 21 -14 7z"/>
<path d="M11586 3765 c-8 -8 -27 -15 -42 -15 -20 0 -25 -3 -17 -11 12 -12 83
16 83 32 0 13 -6 11 -24 -6z"/>
<path d="M11433 3733 c9 -2 23 -2 30 0 6 3 -1 5 -18 5 -16 0 -22 -2 -12 -5z"/>
</g>
</svg>
