<?xml version="1.0" standalone="no"?>
<!DOCTYPE svg PUBLIC "-//W3C//DTD SVG 20010904//EN"
 "http://www.w3.org/TR/2001/REC-SVG-20010904/DTD/svg10.dtd">
<svg version="1.0" xmlns="http://www.w3.org/2000/svg"
 width="500.000000pt" height="500.000000pt" viewBox="0 0 500.000000 500.000000"
 preserveAspectRatio="xMidYMid meet">

<g transform="translate(0.000000,500.000000) scale(0.100000,-0.100000)"
fill="#000000" stroke="none">
<path d="M3359 3387 c13 -14 36 -30 52 -36 24 -8 30 -6 43 14 18 28 13 31 -66
41 l-53 7 24 -26z"/>
<path d="M2368 3252 c-15 -31 -49 -104 -76 -162 -27 -58 -80 -168 -117 -245
-37 -77 -87 -183 -112 -235 -115 -248 -137 -289 -146 -283 -6 3 -7 1 -3 -5 8
-13 -14 -63 -25 -56 -5 3 -6 -3 -2 -12 5 -13 3 -15 -7 -9 -9 6 -11 4 -6 -4 5
-7 0 -21 -11 -33 -10 -12 -12 -18 -6 -14 17 10 10 -7 -70 -173 -52 -107 -66
-129 -72 -112 -3 12 -11 18 -17 15 -7 -4 -7 -1 0 12 17 30 41 60 42 50 0 -5
-7 -17 -15 -26 -9 -10 -13 -25 -9 -34 5 -13 11 -8 25 25 18 40 18 42 2 55 -10
7 -15 16 -10 20 4 4 14 -1 23 -12 14 -18 15 -18 4 4 -9 19 -8 22 9 22 10 0 22
7 25 16 9 23 8 23 -14 19 -11 -2 -20 0 -20 4 0 15 13 20 30 11 13 -7 20 -4 28
15 13 29 5 33 -15 8 -11 -14 -16 -15 -20 -5 -7 18 -32 -16 -33 -45 0 -13 -3
-24 -7 -24 -31 -6 -63 -3 -63 4 0 4 -4 6 -9 3 -4 -3 -16 3 -25 13 -11 12 -13
20 -7 22 14 5 23 49 10 49 -5 0 -9 5 -9 11 0 5 4 8 9 5 4 -3 13 5 19 18 8 17
7 23 -3 23 -8 0 -11 -7 -7 -15 3 -9 1 -13 -5 -9 -16 10 -45 -66 -29 -75 6 -4
7 -8 3 -8 -4 0 -3 -10 3 -22 10 -23 10 -23 -6 0 l-17 24 -28 -59 c-15 -32 -25
-61 -22 -65 2 -5 0 -8 -5 -8 -5 0 -24 -33 -42 -72 -18 -40 -62 -134 -97 -208
-35 -74 -76 -162 -91 -195 -14 -33 -36 -77 -48 -99 -25 -44 -121 -146 -138
-146 -7 0 -7 -3 1 -8 7 -4 114 -7 238 -5 140 1 225 -1 225 -7 0 -15 97 -12
183 4 143 28 252 101 338 228 53 77 212 407 343 708 166 383 226 485 226 385
0 -58 42 -169 169 -443 65 -142 135 -295 156 -342 146 -329 181 -394 256 -469
79 -78 100 -84 299 -88 172 -3 220 0 220 15 0 4 -75 7 -168 7 -192 0 -207 4
-297 87 -48 43 -66 74 -159 261 -57 117 -159 330 -225 474 -157 343 -177 388
-162 379 4 -3 30 10 57 29 27 19 55 33 62 30 6 -2 12 2 12 9 0 8 4 16 9 18 4
2 -11 50 -34 108 -32 79 -40 108 -31 117 10 10 81 42 279 123 97 40 230 127
320 209 38 34 72 60 75 56 4 -3 21 -30 38 -58 34 -59 48 -65 52 -24 2 19 -11
53 -43 108 l-47 80 -87 -83 c-107 -103 -182 -146 -423 -242 -198 -79 -217 -89
-286 -144 -86 -68 -144 -169 -290 -502 -148 -341 -186 -419 -195 -413 -6 3 -7
1 -3 -5 9 -14 -25 -83 -37 -75 -6 3 -7 1 -4 -5 9 -14 -3 -43 -14 -36 -5 3 -6
-3 -2 -12 4 -12 3 -15 -5 -10 -8 5 -10 1 -5 -10 5 -13 3 -15 -7 -9 -8 5 -11 4
-7 -3 11 -16 -4 -44 -20 -38 -8 3 -11 1 -8 -4 3 -6 1 -10 -5 -10 -6 0 -8 -5
-4 -11 4 -8 9 -7 16 2 8 11 9 11 5 -1 -2 -8 -12 -13 -22 -12 -16 3 -17 1 -7
-11 10 -11 4 -26 -27 -73 -53 -80 -118 -152 -118 -131 0 9 4 14 8 11 4 -2 15
6 23 18 12 17 13 25 3 37 -10 14 -10 14 4 4 13 -11 19 -10 33 6 16 18 15 20
-14 45 -17 14 -27 26 -21 26 5 0 16 -7 25 -15 8 -8 17 -11 20 -6 4 5 0 12 -6
15 -7 2 -2 3 12 2 31 -4 55 26 41 51 -5 10 -10 23 -11 28 -5 28 -7 11 -3 -25
3 -22 1 -40 -4 -41 -4 0 -20 -2 -36 -4 -15 -2 -25 0 -22 5 3 4 -2 11 -11 14
-9 4 -13 2 -8 -5 4 -7 1 -10 -7 -7 -8 3 -13 16 -12 33 2 28 2 28 -12 7 -16
-22 -52 -26 -52 -5 0 10 4 10 14 1 7 -6 16 -8 20 -4 3 3 1 6 -5 6 -7 0 -12 5
-12 11 0 6 8 8 18 5 14 -5 13 -3 -3 10 -19 14 -21 13 -40 -12 -81 -113 -156
-164 -276 -189 -62 -13 -141 -20 -98 -8 8 2 52 79 97 171 98 203 242 510 242
518 0 13 162 357 287 610 76 154 157 320 180 369 23 50 48 99 56 110 15 20 15
20 37 0 12 -11 31 -37 42 -58 37 -73 28 -30 -10 49 -21 43 -44 94 -51 112 -8
17 -16 32 -20 32 -3 -1 -18 -26 -33 -58z m-725 -1137 c4 -8 2 -17 -3 -20 -6
-4 -10 3 -10 14 0 25 6 27 13 6z m137 -55 c0 -5 -5 -10 -11 -10 -5 0 -7 5 -4
10 3 6 8 10 11 10 2 0 4 -4 4 -10z m-120 -40 c0 -5 -5 -10 -11 -10 -5 0 -7 5
-4 10 3 6 8 10 11 10 2 0 4 -4 4 -10z m58 -25 c-3 -3 -9 2 -12 12 -6 14 -5 15
5 6 7 -7 10 -15 7 -18z m-133 -4 c3 -5 2 -12 -3 -15 -5 -3 -9 1 -9 9 0 17 3
19 12 6z m13 -56 c-3 -3 -9 2 -12 12 -6 14 -5 15 5 6 7 -7 10 -15 7 -18z m72
-163 c0 -5 -7 -17 -15 -28 -14 -18 -14 -17 -4 9 12 27 19 34 19 19z m250 -226
c0 -2 -6 -9 -14 -15 -11 -9 -16 -9 -22 0 -4 8 -3 9 4 5 7 -4 12 -2 12 3 0 6 5
11 10 11 6 0 10 -2 10 -4z m60 -16 c0 -5 -2 -10 -4 -10 -3 0 -8 5 -11 10 -3 6
-1 10 4 10 6 0 11 -4 11 -10z m41 -37 c13 -16 12 -17 -3 -4 -17 13 -22 21 -14
21 2 0 10 -8 17 -17z m-81 -148 c-14 -17 -131 -85 -146 -85 -5 0 23 18 63 40
39 22 75 45 78 50 3 6 9 10 12 10 3 0 0 -7 -7 -15z m-223 -111 c-3 -3 -12 -4
-19 -1 -8 3 -5 6 6 6 11 1 17 -2 13 -5z m-50 -10 c-3 -3 -12 -4 -19 -1 -8 3
-5 6 6 6 11 1 17 -2 13 -5z"/>
<path d="M1686 2253 c-6 -14 -5 -15 5 -6 7 7 10 15 7 18 -3 3 -9 -2 -12 -12z"/>
<path d="M1667 2216 c-4 -10 -1 -13 8 -9 8 3 12 9 9 14 -7 12 -11 11 -17 -5z"/>
<path d="M1832 2164 c-7 -8 -8 -14 -3 -14 10 0 25 19 20 25 -2 1 -10 -3 -17
-11z"/>
<path d="M1970 1690 c0 -5 1 -11 3 -13 1 -2 -6 -12 -16 -21 -10 -10 -15 -21
-12 -25 4 -3 11 2 16 12 6 9 15 17 21 17 7 0 7 -4 0 -13 -8 -9 -8 -17 0 -27 8
-13 9 -12 5 1 -3 9 -1 21 5 27 8 8 7 13 -5 17 -9 4 -13 13 -10 21 3 8 2 14 -1
14 -3 0 -6 -4 -6 -10z"/>
<path d="M2062 1504 c-7 -8 -8 -14 -3 -14 10 0 25 19 20 25 -2 1 -10 -3 -17
-11z"/>
</g>
</svg>
